<?xml version="1.0" standalone="no"?>
<!DOCTYPE svg PUBLIC "-//W3C//DTD SVG 20010904//EN"
 "http://www.w3.org/TR/2001/REC-SVG-20010904/DTD/svg10.dtd">
<svg version="1.0" xmlns="http://www.w3.org/2000/svg"
 width="512.000000pt" height="512.000000pt" viewBox="0 0 512.000000 512.000000"
 preserveAspectRatio="xMidYMid meet">
<metadata>
Created by potrace 1.14, written by Peter Selinger 2001-2017
</metadata>
<g transform="translate(0.000000,512.000000) scale(0.100000,-0.100000)"
fill="#000000" stroke="none">
<path d="M2860 4931 c0 -5 -9 -7 -20 -4 -11 3 -20 1 -20 -5 0 -5 -12 -13 -27
-16 -34 -8 -97 -38 -101 -49 -2 -4 -8 -5 -13 -2 -8 6 -17 0 -53 -32 -8 -7 -25
-15 -40 -19 -14 -3 -26 -10 -26 -16 0 -5 -4 -6 -10 -3 -5 3 -10 2 -10 -2 0 -5
-20 -19 -45 -33 -25 -14 -45 -29 -45 -34 0 -5 -3 -6 -7 -3 -3 4 -21 -4 -39
-18 -18 -14 -38 -25 -44 -25 -6 0 -13 -7 -16 -15 -4 -8 -12 -15 -19 -15 -6 0
-20 -9 -30 -20 -10 -11 -23 -20 -28 -20 -5 0 -19 -9 -31 -20 -12 -11 -48 -43
-81 -71 -33 -28 -73 -63 -90 -79 -42 -39 -175 -187 -175 -195 0 -3 -11 -16
-25 -29 -14 -13 -25 -26 -25 -30 0 -6 -54 -79 -90 -123 -6 -7 -8 -13 -5 -13 3
0 -6 -18 -19 -39 -14 -22 -28 -51 -32 -65 -3 -14 -10 -26 -15 -26 -5 0 -9 -5
-9 -10 0 -10 -28 -77 -57 -137 -8 -17 -12 -36 -9 -41 4 -6 2 -13 -3 -16 -5 -3
-12 -23 -16 -43 -4 -21 -10 -42 -15 -48 -4 -5 -10 -37 -14 -69 -4 -33 -11 -65
-16 -71 -6 -7 -14 -66 -20 -131 -5 -65 -12 -134 -16 -152 -4 -19 -2 -43 4 -55
6 -12 13 -62 16 -111 4 -49 10 -94 15 -100 5 -6 12 -36 16 -66 4 -30 11 -59
15 -65 5 -5 14 -39 20 -75 7 -36 17 -70 21 -75 4 -6 11 -30 15 -53 4 -23 10
-42 14 -42 12 0 34 -98 33 -145 -1 -91 -70 -155 -166 -155 -71 0 -123 21 -139
54 -6 15 -15 26 -19 26 -4 0 -10 14 -14 30 -4 17 -11 30 -16 30 -5 0 -8 3 -7
8 2 13 -26 102 -33 102 -4 0 -10 18 -14 40 -4 22 -11 42 -16 46 -5 3 -7 10 -3
15 3 5 1 16 -5 23 -6 7 -14 54 -18 106 -11 125 -38 144 -84 58 -8 -15 -33 -58
-56 -96 -23 -37 -45 -80 -48 -95 -4 -15 -11 -27 -16 -27 -5 0 -9 -5 -9 -11 0
-7 -9 -30 -19 -53 -27 -58 -34 -79 -32 -94 1 -6 -2 -12 -7 -12 -6 0 -13 -21
-17 -47 -4 -27 -11 -53 -17 -60 -5 -6 -12 -38 -15 -70 -3 -32 -10 -63 -15 -70
-5 -7 -9 -22 -7 -35 1 -13 -2 -32 -7 -43 -12 -26 -12 -404 0 -430 5 -11 8 -29
7 -39 -2 -10 2 -28 7 -40 6 -12 13 -42 17 -69 3 -26 10 -47 16 -47 5 0 9 -13
9 -29 0 -16 5 -42 12 -58 6 -15 10 -34 9 -40 -1 -7 2 -13 7 -13 6 0 13 -16 16
-35 4 -19 11 -35 16 -35 6 0 10 -7 10 -16 0 -21 50 -124 60 -124 5 0 11 -13
15 -30 4 -16 10 -30 15 -30 4 0 13 -15 21 -32 7 -18 19 -37 26 -41 7 -4 13
-14 13 -22 0 -7 3 -15 8 -17 9 -4 52 -65 52 -74 0 -4 17 -24 38 -44 20 -20 55
-57 78 -81 50 -54 128 -123 214 -189 36 -27 72 -56 82 -64 9 -8 27 -17 40 -21
12 -4 25 -11 28 -14 12 -15 219 -111 263 -122 26 -6 50 -15 53 -20 3 -5 15 -9
27 -9 12 0 34 -6 49 -14 15 -8 60 -20 100 -26 101 -16 97 -15 104 -23 4 -4
107 -7 230 -7 177 0 227 3 250 15 16 8 43 15 59 15 17 0 56 9 88 20 31 11 65
20 76 20 11 0 22 4 25 9 3 4 20 11 37 15 17 3 45 12 62 20 149 68 200 93 252
124 58 35 173 119 206 151 9 9 36 35 60 58 119 112 249 265 249 293 0 5 4 10
9 10 12 0 161 304 161 328 0 5 7 23 15 38 8 16 15 38 15 49 0 12 4 25 9 30 12
14 31 98 31 137 0 19 5 39 12 46 14 14 16 501 2 523 -8 12 -32 126 -35 169 -1
8 -5 20 -9 25 -5 6 -11 27 -15 48 -4 20 -11 37 -15 37 -4 0 -10 19 -13 41 -3
23 -9 45 -14 48 -5 3 -15 25 -23 49 -7 23 -17 42 -21 42 -4 0 -10 14 -14 30
-4 17 -10 30 -14 30 -3 0 -12 12 -19 28 -6 15 -23 45 -36 67 -14 22 -28 47
-32 55 -4 8 -10 17 -13 20 -3 3 -20 25 -36 49 -47 71 -104 130 -249 263 -83
76 -282 273 -351 347 -37 40 -53 64 -72 101 -8 17 -21 34 -45 58 -9 9 -19 29
-23 45 -4 15 -11 27 -16 27 -7 0 -20 20 -51 80 -7 14 -15 27 -19 30 -3 3 -11
26 -19 53 -7 26 -16 47 -21 47 -4 0 -11 16 -15 35 -3 19 -10 35 -15 35 -4 0
-11 16 -15 35 -3 19 -11 35 -16 35 -5 0 -7 9 -3 19 3 11 2 22 -4 25 -5 3 -12
29 -16 56 -4 27 -10 52 -15 55 -4 3 -11 51 -15 107 -4 57 -12 109 -17 115 -6
7 -7 32 -4 55 4 24 11 101 17 173 6 71 14 132 19 135 4 3 11 23 15 45 4 22 12
45 17 52 13 16 0 53 -18 53 -8 0 -14 -4 -14 -9z"/>
<path d="M4527 4834 c-11 -11 -8 -44 3 -44 15 0 24 30 13 41 -5 5 -12 6 -16 3z"/>
</g>
</svg>
